<mxfile host="app.diagrams.net" modified="2023-12-21T01:35:39.408Z" agent="Mozilla/5.0 (Windows NT 10.0; Win64; x64) AppleWebKit/537.36 (KHTML, like Gecko) Chrome/120.0.0.0 Safari/537.36 Edg/120.0.0.0" etag="sQzGYMFIhZoMNrMTIfXu" version="22.1.11" type="github">
  <diagram id="C5RBs43oDa-KdzZeNtuy" name="Page-1">
    <mxGraphModel dx="1434" dy="796" grid="1" gridSize="10" guides="1" tooltips="1" connect="1" arrows="1" fold="1" page="1" pageScale="1" pageWidth="827" pageHeight="1169" math="0" shadow="0">
      <root>
        <mxCell id="WIyWlLk6GJQsqaUBKTNV-0" />
        <mxCell id="WIyWlLk6GJQsqaUBKTNV-1" parent="WIyWlLk6GJQsqaUBKTNV-0" />
        <mxCell id="D9EsJ571kgZujvCMwtfL-5" value="" style="edgeStyle=orthogonalEdgeStyle;rounded=0;orthogonalLoop=1;jettySize=auto;html=1;" edge="1" parent="WIyWlLk6GJQsqaUBKTNV-1" source="WIyWlLk6GJQsqaUBKTNV-3" target="D9EsJ571kgZujvCMwtfL-4">
          <mxGeometry relative="1" as="geometry" />
        </mxCell>
        <mxCell id="WIyWlLk6GJQsqaUBKTNV-3" value="成图待审核" style="rounded=1;whiteSpace=wrap;html=1;fontSize=12;glass=0;strokeWidth=1;shadow=0;labelBackgroundColor=none;" parent="WIyWlLk6GJQsqaUBKTNV-1" vertex="1">
          <mxGeometry x="280" y="140" width="120" height="40" as="geometry" />
        </mxCell>
        <mxCell id="D9EsJ571kgZujvCMwtfL-15" style="edgeStyle=orthogonalEdgeStyle;rounded=0;orthogonalLoop=1;jettySize=auto;html=1;" edge="1" parent="WIyWlLk6GJQsqaUBKTNV-1" source="D9EsJ571kgZujvCMwtfL-4" target="D9EsJ571kgZujvCMwtfL-8">
          <mxGeometry relative="1" as="geometry" />
        </mxCell>
        <mxCell id="D9EsJ571kgZujvCMwtfL-20" value="" style="edgeStyle=orthogonalEdgeStyle;rounded=0;orthogonalLoop=1;jettySize=auto;html=1;" edge="1" parent="WIyWlLk6GJQsqaUBKTNV-1" source="D9EsJ571kgZujvCMwtfL-4" target="D9EsJ571kgZujvCMwtfL-8">
          <mxGeometry relative="1" as="geometry" />
        </mxCell>
        <mxCell id="D9EsJ571kgZujvCMwtfL-23" value="" style="edgeStyle=orthogonalEdgeStyle;rounded=0;orthogonalLoop=1;jettySize=auto;html=1;" edge="1" parent="WIyWlLk6GJQsqaUBKTNV-1" source="D9EsJ571kgZujvCMwtfL-4" target="D9EsJ571kgZujvCMwtfL-22">
          <mxGeometry relative="1" as="geometry" />
        </mxCell>
        <mxCell id="D9EsJ571kgZujvCMwtfL-4" value="上传附件" style="rounded=1;whiteSpace=wrap;html=1;fontSize=12;glass=0;strokeWidth=1;shadow=0;labelBackgroundColor=none;" vertex="1" parent="WIyWlLk6GJQsqaUBKTNV-1">
          <mxGeometry x="280" y="240" width="120" height="40" as="geometry" />
        </mxCell>
        <mxCell id="D9EsJ571kgZujvCMwtfL-11" value="" style="edgeStyle=orthogonalEdgeStyle;rounded=0;orthogonalLoop=1;jettySize=auto;html=1;" edge="1" parent="WIyWlLk6GJQsqaUBKTNV-1" source="D9EsJ571kgZujvCMwtfL-8" target="D9EsJ571kgZujvCMwtfL-10">
          <mxGeometry relative="1" as="geometry" />
        </mxCell>
        <mxCell id="D9EsJ571kgZujvCMwtfL-32" value="新增设备存在错误" style="edgeLabel;html=1;align=center;verticalAlign=middle;resizable=0;points=[];" vertex="1" connectable="0" parent="D9EsJ571kgZujvCMwtfL-11">
          <mxGeometry x="-0.38" y="-1" relative="1" as="geometry">
            <mxPoint as="offset" />
          </mxGeometry>
        </mxCell>
        <mxCell id="D9EsJ571kgZujvCMwtfL-27" value="" style="edgeStyle=orthogonalEdgeStyle;rounded=0;orthogonalLoop=1;jettySize=auto;html=1;" edge="1" parent="WIyWlLk6GJQsqaUBKTNV-1" source="D9EsJ571kgZujvCMwtfL-8" target="D9EsJ571kgZujvCMwtfL-26">
          <mxGeometry relative="1" as="geometry" />
        </mxCell>
        <mxCell id="D9EsJ571kgZujvCMwtfL-30" value="新增设备全部确认正确" style="edgeLabel;html=1;align=center;verticalAlign=middle;resizable=0;points=[];" vertex="1" connectable="0" parent="D9EsJ571kgZujvCMwtfL-27">
          <mxGeometry x="-0.1077" relative="1" as="geometry">
            <mxPoint as="offset" />
          </mxGeometry>
        </mxCell>
        <mxCell id="D9EsJ571kgZujvCMwtfL-8" value="有新增设备" style="rhombus;whiteSpace=wrap;html=1;rounded=1;glass=0;strokeWidth=1;shadow=0;labelBackgroundColor=none;" vertex="1" parent="WIyWlLk6GJQsqaUBKTNV-1">
          <mxGeometry x="250" y="420" width="180" height="100" as="geometry" />
        </mxCell>
        <mxCell id="D9EsJ571kgZujvCMwtfL-10" value="反馈同源" style="whiteSpace=wrap;html=1;rounded=1;glass=0;strokeWidth=1;shadow=0;labelBackgroundColor=none;" vertex="1" parent="WIyWlLk6GJQsqaUBKTNV-1">
          <mxGeometry x="570" y="310" width="120" height="60" as="geometry" />
        </mxCell>
        <mxCell id="D9EsJ571kgZujvCMwtfL-12" value="审核通过，下发图模" style="whiteSpace=wrap;html=1;rounded=1;glass=0;strokeWidth=1;shadow=0;labelBackgroundColor=none;" vertex="1" parent="WIyWlLk6GJQsqaUBKTNV-1">
          <mxGeometry x="280" y="930" width="120" height="60" as="geometry" />
        </mxCell>
        <mxCell id="D9EsJ571kgZujvCMwtfL-22" value="点击审核按钮" style="whiteSpace=wrap;html=1;rounded=1;glass=0;strokeWidth=1;shadow=0;labelBackgroundColor=none;" vertex="1" parent="WIyWlLk6GJQsqaUBKTNV-1">
          <mxGeometry x="280" y="320" width="120" height="60" as="geometry" />
        </mxCell>
        <mxCell id="D9EsJ571kgZujvCMwtfL-29" value="" style="edgeStyle=orthogonalEdgeStyle;rounded=0;orthogonalLoop=1;jettySize=auto;html=1;" edge="1" parent="WIyWlLk6GJQsqaUBKTNV-1" source="D9EsJ571kgZujvCMwtfL-26" target="D9EsJ571kgZujvCMwtfL-28">
          <mxGeometry relative="1" as="geometry" />
        </mxCell>
        <mxCell id="D9EsJ571kgZujvCMwtfL-34" value="修改设备全部确认正确" style="edgeLabel;html=1;align=center;verticalAlign=middle;resizable=0;points=[];" vertex="1" connectable="0" parent="D9EsJ571kgZujvCMwtfL-29">
          <mxGeometry x="-0.1385" relative="1" as="geometry">
            <mxPoint as="offset" />
          </mxGeometry>
        </mxCell>
        <mxCell id="D9EsJ571kgZujvCMwtfL-31" style="edgeStyle=orthogonalEdgeStyle;rounded=0;orthogonalLoop=1;jettySize=auto;html=1;" edge="1" parent="WIyWlLk6GJQsqaUBKTNV-1" source="D9EsJ571kgZujvCMwtfL-26">
          <mxGeometry relative="1" as="geometry">
            <mxPoint x="630" y="370" as="targetPoint" />
          </mxGeometry>
        </mxCell>
        <mxCell id="D9EsJ571kgZujvCMwtfL-33" value="修改设备存在错误" style="edgeLabel;html=1;align=center;verticalAlign=middle;resizable=0;points=[];" vertex="1" connectable="0" parent="D9EsJ571kgZujvCMwtfL-31">
          <mxGeometry x="-0.5832" y="1" relative="1" as="geometry">
            <mxPoint as="offset" />
          </mxGeometry>
        </mxCell>
        <mxCell id="D9EsJ571kgZujvCMwtfL-26" value="有修改设备" style="rhombus;whiteSpace=wrap;html=1;rounded=1;glass=0;strokeWidth=1;shadow=0;labelBackgroundColor=none;" vertex="1" parent="WIyWlLk6GJQsqaUBKTNV-1">
          <mxGeometry x="250" y="585" width="180" height="100" as="geometry" />
        </mxCell>
        <mxCell id="D9EsJ571kgZujvCMwtfL-35" style="edgeStyle=orthogonalEdgeStyle;rounded=0;orthogonalLoop=1;jettySize=auto;html=1;" edge="1" parent="WIyWlLk6GJQsqaUBKTNV-1" source="D9EsJ571kgZujvCMwtfL-28" target="D9EsJ571kgZujvCMwtfL-10">
          <mxGeometry relative="1" as="geometry" />
        </mxCell>
        <mxCell id="D9EsJ571kgZujvCMwtfL-36" value="删除设备存在错误" style="edgeLabel;html=1;align=center;verticalAlign=middle;resizable=0;points=[];" vertex="1" connectable="0" parent="D9EsJ571kgZujvCMwtfL-35">
          <mxGeometry x="-0.6825" y="1" relative="1" as="geometry">
            <mxPoint as="offset" />
          </mxGeometry>
        </mxCell>
        <mxCell id="D9EsJ571kgZujvCMwtfL-37" style="edgeStyle=orthogonalEdgeStyle;rounded=0;orthogonalLoop=1;jettySize=auto;html=1;exitX=0.5;exitY=1;exitDx=0;exitDy=0;entryX=0.5;entryY=0;entryDx=0;entryDy=0;" edge="1" parent="WIyWlLk6GJQsqaUBKTNV-1" source="D9EsJ571kgZujvCMwtfL-28" target="D9EsJ571kgZujvCMwtfL-12">
          <mxGeometry relative="1" as="geometry" />
        </mxCell>
        <mxCell id="D9EsJ571kgZujvCMwtfL-38" value="删除设备全部确认正确" style="edgeLabel;html=1;align=center;verticalAlign=middle;resizable=0;points=[];" vertex="1" connectable="0" parent="D9EsJ571kgZujvCMwtfL-37">
          <mxGeometry x="-0.4167" relative="1" as="geometry">
            <mxPoint as="offset" />
          </mxGeometry>
        </mxCell>
        <mxCell id="D9EsJ571kgZujvCMwtfL-28" value="有删除设备" style="rhombus;whiteSpace=wrap;html=1;rounded=1;glass=0;strokeWidth=1;shadow=0;labelBackgroundColor=none;" vertex="1" parent="WIyWlLk6GJQsqaUBKTNV-1">
          <mxGeometry x="250" y="750" width="180" height="100" as="geometry" />
        </mxCell>
      </root>
    </mxGraphModel>
  </diagram>
</mxfile>
